<svg xmlns="http://www.w3.org/2000/svg" xmlns:xlink="http://www.w3.org/1999/xlink" width="138.4" height="97.6" viewBox="0 0 138.4 97.6"><style type="text/css">.st0{fill:none;stroke:#2F3432;stroke-width:5.65;stroke-linecap:round;stroke-linejoin:round;stroke-miterlimit:10;} .st1{clip-path:url(#SVGID_2_);} .st2{clip-path:url(#SVGID_4_);fill:#FFFFFF;}</style><path class="st0" d="M27.7 19.2c0 2.4 37-15.5 37-15.5l-36.4 20 41.6-13.4-52.4 20.2 71.3-24.3-81.2 39.3 68.9-26.9-57.4 29.2 68.6-30.3-84.1 45.7 91.6-42.2-69.6 37.8 91.6-49.6-97.5 59.1 87.7-43.4-88.7 52.6 89.4-47.3-74.5 44.3 87.5-46.5-80.3 48 91-42.3-78.4 39.6 60.7-27.3-84.4 41.6 95.8-39.2-72.1 30.3 63.9-19.6-58.7 21.7 75.9-20.8-83.7 32.6 55.1-18.9-34.6 11 32.9-3.9-29.6 13"/><defs><path id="SVGID_1_" d="M34.9 26h72.3v45.8h-72.3z"/></defs><clipPath id="SVGID_2_"><use xlink:href="#SVGID_1_" overflow="visible"/></clipPath><g class="st1"><defs><path id="SVGID_3_" d="M34.9 26h72.3v45.8h-72.3z"/></defs><clipPath id="SVGID_4_"><use xlink:href="#SVGID_3_" overflow="visible"/></clipPath><path class="st2" d="M82 33.2h17.7v-4.4h-17.7v4.4zm24.6 22.8c0-1.6 0-3.1-.1-4.7-.1-2.1-.7-4.2-1.6-6.1-1.5-3-3.7-5.3-6.8-6.5-3.5-1.4-7.1-1.7-10.8-1-5.5 1.2-9.3 4.4-11 9.9-1.2 4-1.2 8.1-.4 12.1.5 2.3 1.4 4.4 3.1 6.1 2 2.1 4.5 3.5 7.3 4.3 2.7.8 5.4.8 8.2.4 3.5-.5 6.5-2 8.9-4.7 1.1-1.2 2-2.6 2.5-4.1.1-.4.2-.8.3-1.3h-8.1c-.2 0-.4.1-.5.3-.9 1.7-2.3 2.7-4.2 3.1-1 .2-2.1.2-3.1.1-1.5-.2-2.9-.7-4-1.6-1.4-1.1-2.1-2.7-2.4-4.5l-.2-1.7h23c-.1 0-.1-.1-.1-.1m-22.8-5.3l.3-1.2c.2-.9.6-1.7 1.1-2.5 1-1.5 2.3-2.4 4-2.8 1.4-.3 2.9-.3 4.3.2 2.5.8 4 2.6 4.4 5.2.1.3.1.7.1 1.1h-14.2zm-12 4.8c-.6-3.9-2.6-6.6-6.3-8l-.3-.1c.3-.2.6-.3.8-.5 2.1-1.2 3.5-2.9 4.1-5.3.4-1.5.5-3.1.3-4.7-.5-4.2-2.6-7.1-6.5-8.7-2.2-.9-4.6-1.2-7-1.2h-21.1v44h19.8c1.9 0 3.7-.1 5.6-.5 4.3-.7 7.5-3.1 9.4-7 1.3-2.5 1.6-5.2 1.2-8m-25.8-20.9h8.6c1.5 0 2.9.1 4.3.5 1.6.5 2.6 1.6 2.8 3.3.1.9.1 1.8-.2 2.7-.3 1-.9 1.8-1.8 2.3-1.3.7-2.7.9-4.1.9h-9.6v-9.7zm16.2 25.3c-.7 1.8-2.1 2.9-3.9 3.2-.9.2-1.8.3-2.7.3h-9.5v-11.7h10.2c1.1 0 2.2.2 3.2.5 2 .7 3.1 2.3 3.2 4.4 0 1.1-.1 2.2-.5 3.3m9.6-4.4c-.6-3.9-2.6-6.6-6.3-8l-.3-.1c.3-.2.6-.3.8-.5 2.1-1.2 3.5-2.9 4.1-5.3.4-1.5.5-3.1.3-4.7-.5-4.2-2.6-7.1-6.5-8.7-2.2-.9-4.6-1.2-7-1.2h-21.1v44h19.8c1.9 0 3.7-.1 5.6-.5 4.3-.7 7.5-3.1 9.4-7 1.3-2.5 1.6-5.2 1.2-8m-25.8-20.9h8.6c1.5 0 2.9.1 4.3.5 1.6.5 2.6 1.6 2.8 3.3.1.9.1 1.8-.2 2.7-.3 1-.9 1.8-1.8 2.3-1.3.7-2.7.9-4.1.9h-9.6v-9.7zm16.2 25.3c-.7 1.8-2.1 2.9-3.9 3.2-.9.2-1.8.3-2.7.3h-9.5v-11.7h10.2c1.1 0 2.2.2 3.2.5 2 .7 3.1 2.3 3.2 4.4 0 1.1-.1 2.2-.5 3.3"/><path class="st2" d="M106.6 56c0-1.6 0-3.1-.1-4.7-.1-2.1-.7-4.2-1.6-6.1-1.5-3-3.7-5.3-6.8-6.5-3.5-1.4-7.1-1.7-10.8-1-5.5 1.2-9.3 4.4-11 9.9-1.2 4-1.2 8.1-.4 12.1.5 2.3 1.4 4.4 3.1 6.1 2 2.1 4.5 3.5 7.3 4.3 2.7.8 5.4.8 8.2.4 3.5-.5 6.5-2 8.9-4.7 1.1-1.2 2-2.6 2.5-4.1.1-.4.2-.8.3-1.3h-8.1c-.2 0-.4.1-.5.3-.9 1.7-2.3 2.7-4.2 3.1-1 .2-2.1.2-3.1.1-1.5-.2-2.9-.7-4-1.6-1.4-1.1-2.1-2.7-2.4-4.5l-.2-1.7h23c-.1 0-.1-.1-.1-.1m-22.8-5.3l.3-1.2c.2-.9.6-1.7 1.1-2.5 1-1.5 2.3-2.4 4-2.8 1.4-.3 2.9-.3 4.3.2 2.5.8 4 2.6 4.4 5.2.1.3.1.7.1 1.1h-14.2zm-1.8-21.9h17.7v4.4h-17.7z"/></g></svg>