<?xml version="1.0" encoding="utf-8"?>
<!-- Generator: Adobe Illustrator 21.0.0, SVG Export Plug-In . SVG Version: 6.00 Build 0)  -->
<svg version="1.1" id="Layer_1" xmlns="http://www.w3.org/2000/svg" xmlns:xlink="http://www.w3.org/1999/xlink" x="0px" y="0px"
	 width="88.4px" height="97.6px" viewBox="0 0 88.4 97.6" style="enable-background:new 0 0 88.4 97.6;" xml:space="preserve">
<style type="text/css">
	.st0{fill:none;stroke:#2F3432;stroke-width:5.8228;stroke-linecap:round;stroke-linejoin:round;stroke-miterlimit:10;}
	.st1{fill:#FFFFFF;}
</style>
<path class="st0" d="M22.7,14.3c0,2.5,15-4.3,15-4.3L3.5,31.3L57.2,3.6l-42,28.8L51,14.9L25.8,31.1l49-25.8l-52.4,32l50.5-22.9
	l-64.2,35l75.7-31.9L21.7,47.2L76,29.9L9.7,58.8l70.7-24.9L20.3,61.8L68.6,44l-57,31.6l69.2-32.8L26.1,72.2l46.6-22.1l-44.9,27
	l57.3-28.2L21.4,81.8L73.1,63L27.8,82.6l41.1-12L33.2,84.7l45.5-13L26.5,90.1l48.1-9.7L33.8,94.3l32.8-9.6L53,93.8"/>
<g>
	<path class="st1" d="M49.4,42.3c0-3.1-0.1-6.1,0-9.1c0-1.3,0.6-2.6,1.8-3.4c0.9-0.6,1.9-0.9,3-0.9c2.2,0,4.4,0,6.7,0
		c0.3,0,0.5,0,0.8,0c0-3.8,0-7.5,0-11.2c-0.7-0.1-1.4-0.2-2.1-0.2c-2.6-0.1-5.2-0.2-7.9-0.1c-1.4,0-2.8,0.2-4.1,0.5
		c-3,0.6-5.6,2.2-7.5,4.6c-2.3,2.9-3.3,6.3-3.3,9.9c0,3,0,6.1,0,9.1c0,0.3,0,0.5,0,0.9c-3.5,0-7,0-10.4,0c0,4.1,0,8.2,0,12.3
		c3.5,0,6.9,0,10.4,0c0,10.4,0,20.8,0,31.1c4.3,0,8.4,0,12.7,0c0-10.4,0-20.7,0-31.1c3.5,0,6.9,0,10.3,0c0.5-4.1,1-8.2,1.5-12.3
		C57.3,42.3,53.4,42.3,49.4,42.3z"/>
	<path class="st1" d="M49.4,42.3c4,0,8,0,11.9,0c-0.5,4.1-1,8.2-1.5,12.3c-3.4,0-6.8,0-10.3,0c0,10.4,0,20.8,0,31.1
		c-4.3,0-8.4,0-12.7,0c0-10.3,0-20.7,0-31.1c-3.5,0-6.9,0-10.4,0c0-4.1,0-8.2,0-12.3c3.4,0,6.8,0,10.4,0c0-0.4,0-0.6,0-0.9
		c0-3,0-6.1,0-9.1c0-3.7,1-7,3.3-9.9c1.9-2.4,4.5-4,7.5-4.6c1.3-0.3,2.7-0.4,4.1-0.5c2.6,0,5.2,0.1,7.9,0.1c0.7,0,1.4,0.1,2.1,0.2
		c0,3.7,0,7.4,0,11.2c-0.2,0-0.5,0-0.8,0c-2.2,0-4.4,0-6.7,0c-1.1,0-2.1,0.3-3,0.9c-1.2,0.8-1.7,2.1-1.8,3.4
		C49.3,36.2,49.4,39.2,49.4,42.3z"/>
</g>
</svg>
