<svg xmlns="http://www.w3.org/2000/svg" width="88.4" height="97.6" viewBox="0 0 88.4 97.6"><style type="text/css">.st0{fill:none;stroke:#2F3432;stroke-width:5.8228;stroke-linecap:round;stroke-linejoin:round;stroke-miterlimit:10;} .st1{fill:#FFFFFF;}</style><path class="st0" d="M22.7 14.3c0 2.5 15-4.3 15-4.3l-34.2 21.3 53.7-27.7-42 28.8 35.8-17.5-25.2 16.2 49-25.8-52.4 32 50.5-22.9-64.2 35 75.7-31.9-62.7 29.7 54.3-17.3-66.3 28.9 70.7-24.9-60.1 27.9 48.3-17.8-57 31.6 69.2-32.8-54.7 29.4 46.6-22.1-44.9 27 57.3-28.2-63.7 32.9 51.7-18.8-45.3 19.6 41.1-12-35.7 14.1 45.5-13-52.2 18.4 48.1-9.7-40.8 13.9 32.8-9.6-13.6 9.1"/><path class="st1" d="M49 42.2c0-3.1-.1-6.1 0-9 0-1.3.6-2.6 1.8-3.4.9-.6 1.9-.9 3-.9h7.5v-11.1c-.7-.1-1.4-.2-2.1-.2-2.6-.1-5.2-.2-7.9-.1-1.4 0-2.8.2-4.1.5-3 .6-5.6 2.2-7.5 4.6-2.3 2.8-3.3 6.2-3.3 9.9v9.9h-10.4v12.2h10.4v30.9h12.7v-30.9h10.3l1.5-12.2c-3.9-.2-7.8-.2-11.9-.2zm0 0h11.9l-1.5 12.2h-10.3v30.9h-12.7v-30.9h-10.4v-12.2h10.4v-9.9c0-3.6 1-7 3.3-9.9 1.9-2.4 4.5-4 7.5-4.6 1.3-.3 2.7-.4 4.1-.5 2.6 0 5.2.1 7.9.1.7 0 1.4.1 2.1.2v11.1h-7.5c-1.1 0-2.1.3-3 .9-1.2.8-1.7 2.1-1.8 3.4v9.2z"/></svg>