<svg xmlns="http://www.w3.org/2000/svg" width="138.4" height="97.6" viewBox="0 0 138.4 97.6"><style type="text/css">.st0{fill:none;stroke:#2F3432;stroke-width:5.733;stroke-linecap:round;stroke-linejoin:round;stroke-miterlimit:10;} .st1{fill:#FFFFFF;}</style><path class="st0" d="M31.2 14.7c0 2.4 22.9-6.6 22.9-6.6l-40.7 18.9 51.9-18.1-42.9 20.5 68.2-25.6-86.6 39.5 78.5-28.7-68.8 32.3 80.1-33.8-73.4 38 70.6-31.4-70.7 38.4 81.8-39.8-87.8 49.5 89-44.1-81.8 47.5 106.4-56.6-99.4 59.5 88.7-47.2-99 59 94.5-48.9-64.2 35.9 86-38.3-102.3 48.3 82.3-32.6-78.9 35.9 95.7-35.6-77.5 29.8 56-14.2-59.8 20 51.9-13-53.7 20.2 51.7-13-25.7 12.7"/><path class="st1" d="M46.2 49.6c.1-9.4 7.6-16.8 17-16.8 9.4.1 16.8 7.6 16.7 17-.1 9.3-7.5 16.7-16.9 16.7s-16.9-7.5-16.8-16.9zm16.8 11c6.1 0 10.9-4.8 10.9-10.9 0-6-4.7-10.9-10.7-10.9-6.1 0-11 4.7-11 10.8-.1 6.2 4.7 11 10.8 11zm21.5-28.5c0 2.2-1.7 4-3.9 4-2.1 0-4-1.8-4-3.9s1.7-3.9 3.9-4c2.3.1 3.9 1.7 4 3.9zm-7.4-15.2h-28c-10.4 0-18.9 8.5-18.9 18.9v27.6c0 10.4 8.5 18.9 18.9 18.9h28c10.4 0 18.9-8.5 18.9-18.9v-27.6c0-10.4-8.5-18.9-18.9-18.9zm13.4 44.2c0 8.6-7.1 15.7-15.7 15.7h-23.4c-8.6 0-15.7-7.1-15.7-15.7v-23c0-8.6 7.1-15.7 15.7-15.7h23.3c8.6 0 15.7 7.1 15.7 15.7v23z"/></svg>