<svg xmlns="http://www.w3.org/2000/svg" width="138.4" height="97.6" viewBox="0 0 138.4 97.6"><style type="text/css">.st0{fill:none;stroke:#2F3432;stroke-width:5.733;stroke-linecap:round;stroke-linejoin:round;stroke-miterlimit:10;} .st1{fill:#FFFFFF;}</style><path class="st0" d="M31.2 14.7c0 2.4 22.9-6.6 22.9-6.6l-40.7 18.9 51.9-18.1-42.9 20.5 68.2-25.6-86.6 39.5 78.5-28.7-68.8 32.3 80.1-33.8-73.4 38 70.6-31.4-70.7 38.4 81.8-39.8-87.8 49.5 89-44.1-81.8 47.5 106.4-56.6-99.4 59.5 88.7-47.2-99 59 94.5-48.9-64.2 35.9 86-38.3-102.3 48.3 82.3-32.6-78.9 35.9 95.7-35.6-77.5 29.8 56-14.2-59.8 20 51.9-13-53.7 20.2 51.7-13-25.7 12.7"/><path class="st1" d="M30.2 62.9v-26.3c.1-.7.3-1.5.3-2.2.5-8.5 5.9-14.9 14.1-16.7 1.7-.4 3.5-.5 5.3-.8h26.3c.7.1 1.5.3 2.2.3 8.4.5 14.6 5.6 16.6 13.8.5 1.9.6 3.9.9 5.9v25.3c-.1 1-.3 1.9-.3 2.9-.5 8.3-5.6 14.6-13.8 16.5-2 .5-4.2.6-6.3.9h-25.3c-.9-.1-1.7-.3-2.6-.3-8.5-.5-15-6-16.7-14.2l-.7-5.1zm32.7 13.5c4.9 0 9.7.1 14.6 0 3.6-.1 6.9-1.2 9.3-4.1 2-2.4 2.8-5.2 2.9-8.2.1-9.4.2-18.8 0-28.2-.2-7.9-4.7-12.4-12.5-12.6-8.2-.4-16.2-.4-24.2-.4-2.4 0-4.9.2-7.3.7-5.5 1.2-9 5.5-9.1 11.7-.2 9.6-.2 19.1 0 28.7.2 7.6 4.8 12.1 12.4 12.4 4.6.1 9.2 0 13.9 0zm12.6 6.2c2.1-.3 4.2-.4 6.3-.9 8.1-1.9 13.3-8.2 13.8-16.5l.3-2.9m0-25.4c-.3-2-.4-4-.9-5.9-2-8.2-8.2-13.3-16.5-13.8-.8 0-1.5-.2-2.2-.3m-46.1 46c.2 1.7.4 3.5.8 5.1 1.7 8.2 8.2 13.7 16.7 14.2.9 0 1.7.2 2.6.3m-.4-65.6c-1.8.3-3.6.4-5.3.8-8.2 1.8-13.6 8.2-14.1 16.7 0 .8-.2 1.5-.3 2.2"/><path class="st1" d="M46.2 49.6c.1-9.4 7.6-16.8 17-16.8 9.4.1 16.8 7.6 16.7 17-.1 9.3-7.5 16.7-16.9 16.7-9.4 0-16.9-7.5-16.8-16.9zm16.8 11c6.1 0 10.9-4.8 10.9-10.9 0-6-4.7-10.9-10.7-10.9-6.1 0-11 4.7-11 10.8-.1 6.2 4.7 11 10.8 11zm21.5-28.5c0 2.2-1.7 4-3.9 4-2.1 0-4-1.8-4-3.9 0-2.1 1.7-3.9 3.9-4 2.3.1 3.9 1.7 4 3.9z"/></svg>